<svg width="132" height="24" viewBox="0 0 132 24" fill="none" xmlns="http://www.w3.org/2000/svg">
<path d="M4.16 0.800049V7.20005H5.168C5.872 6.08005 7.248 5.31205 9.104 5.31205C13.04 5.31205 15.456 8.51205 15.456 12.624C15.456 17.104 12.8 19.952 9.136 19.952C7.248 19.952 5.872 19.216 5.2 18.032H4.16V19.68H0V0.800049H4.16ZM7.744 16.144C9.904 16.144 11.328 14.6081 11.328 12.6081C11.328 10.64 9.904 9.10405 7.744 9.10405C5.552 9.10405 4.16 10.64 4.16 12.6081C4.16 14.6081 5.552 16.144 7.744 16.144Z" fill="black"/>
<path d="M33.856 9.39195V5.58395H35.824V2.31995H39.952V5.58395H43.504V9.39195H39.952V13.7439C39.952 15.2479 40.384 15.8719 41.872 15.8719H43.52V19.6799H41.744C37.392 19.6799 35.84 17.8719 35.84 13.7919V9.39195H33.856Z" fill="black"/>
<path d="M51.04 10.976H54.4V10.928C54.4 9.37601 53.408 8.70401 51.936 8.70401C50.464 8.70401 49.712 9.40801 49.472 10.368H45.472C45.744 7.44001 47.776 5.31201 52.016 5.31201C56.288 5.31201 58.56 7.47201 58.56 11.008V19.68H54.4V18.448H53.392C52.736 19.216 51.744 19.952 49.776 19.952C46.816 19.952 45.296 17.984 45.296 15.488C45.296 12.64 47.12 10.976 51.04 10.976ZM51.584 16.528C52.592 16.528 53.52 16.336 54.4 15.792V13.664H51.552C50.208 13.664 49.424 14.16 49.424 15.088C49.424 16.032 50.224 16.528 51.584 16.528Z" fill="black"/>
<path d="M60.944 19.68V5.58401H65.104V6.78401H66.112C66.848 5.90401 67.696 5.31201 69.536 5.31201C72.688 5.31201 74.384 7.36001 74.384 10.896V19.68H70.256V11.792C70.256 10.016 69.488 9.10401 67.744 9.10401C66.48 9.10401 65.696 9.45601 65.12 9.90401V19.68H60.944Z" fill="black"/>
<path d="M78.848 0.223999C80.192 0.223999 81.12 1.12 81.12 2.416C81.12 3.616 80.192 4.544 78.848 4.544C77.504 4.544 76.544 3.616 76.544 2.416C76.544 1.12 77.504 0.223999 78.848 0.223999ZM80.928 5.584V19.68H76.768V5.584H80.928Z" fill="black"/>
<path d="M93.264 7.20001H94.272V5.58401H98.432V23.776H94.272V18.032H93.232C92.544 19.216 91.184 19.952 89.296 19.952C85.632 19.952 82.976 17.104 82.976 12.624C82.976 8.51201 85.392 5.31201 89.328 5.31201C91.184 5.31201 92.56 6.08001 93.264 7.20001ZM90.688 16.144C92.88 16.144 94.272 14.608 94.272 12.608C94.272 10.64 92.88 9.10401 90.688 9.10401C88.528 9.10401 87.104 10.64 87.104 12.608C87.104 14.608 88.528 16.144 90.688 16.144Z" fill="black"/>
<path d="M100.816 14.368V5.58398H104.944V13.472C104.944 15.248 105.712 16.16 107.456 16.16C108.72 16.16 109.504 15.808 110.08 15.36V5.58398H114.24V19.68H110.08V18.48H109.072C108.336 19.36 107.488 19.952 105.648 19.952C102.512 19.952 100.816 17.904 100.816 14.368Z" fill="black"/>
<path d="M116.304 12.608C116.304 8.49602 119.312 5.29602 123.856 5.29602C128.56 5.29602 131.36 8.52802 131.36 12.464C131.36 12.896 131.328 13.28 131.312 13.552H120.304C120.544 15.44 121.808 16.528 123.856 16.528C125.408 16.528 126.544 15.984 127.008 14.976H131.168C130.352 17.856 127.808 19.936 123.856 19.936C119.312 19.952 116.304 16.72 116.304 12.608ZM127.168 10.912C126.736 9.63202 125.632 8.68802 123.856 8.68802C122.112 8.68802 120.896 9.58402 120.464 10.912H127.168Z" fill="black"/>
<path d="M24.016 18.912C23.92 18.128 24.48 17.408 25.28 17.312C26.064 17.216 26.784 17.776 26.88 18.576C26.976 19.36 26.416 20.08 25.616 20.176C25.552 20.176 25.504 20.192 25.44 20.192C24.72 20.176 24.096 19.632 24.016 18.912ZM22.016 19.728C21.264 19.44 20.896 18.608 21.184 17.872C21.472 17.12 22.304 16.752 23.04 17.04C23.776 17.328 24.16 18.16 23.872 18.896C23.648 19.472 23.104 19.824 22.528 19.824C22.352 19.824 22.176 19.792 22.016 19.728ZM27.008 18.512C26.56 17.856 26.72 16.96 27.376 16.512C28.032 16.064 28.928 16.224 29.376 16.88C29.824 17.536 29.664 18.432 29.008 18.88C28.752 19.056 28.464 19.136 28.192 19.136C27.728 19.136 27.28 18.912 27.008 18.512ZM19.024 17.664C18.496 17.072 18.544 16.16 19.136 15.632C19.728 15.104 20.64 15.152 21.168 15.744C21.696 16.336 21.648 17.248 21.056 17.776C20.784 18.016 20.448 18.144 20.096 18.144C19.696 18.16 19.312 17.984 19.024 17.664ZM29.472 16.768C28.768 16.4 28.496 15.52 28.864 14.816C29.232 14.112 30.112 13.84 30.816 14.208C31.52 14.576 31.792 15.456 31.424 16.16C31.168 16.656 30.672 16.928 30.144 16.928C29.904 16.928 29.68 16.88 29.472 16.768ZM17.328 14.464C17.136 13.696 17.616 12.912 18.384 12.72C19.152 12.528 19.936 13.008 20.128 13.776C20.32 14.544 19.84 15.328 19.072 15.52C18.96 15.552 18.848 15.568 18.72 15.568C18.08 15.552 17.488 15.12 17.328 14.464ZM29.392 12.64C29.392 12.624 29.392 12.624 29.392 12.64C29.392 12.624 29.392 12.624 29.392 12.64C29.392 11.824 30.032 11.184 30.832 11.184C31.632 11.184 32.272 11.824 32.272 12.624V12.64C32.272 13.44 31.632 14.08 30.832 14.08C30.048 14.08 29.392 13.424 29.392 12.64ZM18.384 12.576C17.616 12.384 17.136 11.6 17.328 10.832C17.52 10.064 18.304 9.58397 19.072 9.77597C19.84 9.96797 20.32 10.736 20.128 11.52C19.968 12.176 19.376 12.624 18.736 12.624C18.608 12.608 18.496 12.608 18.384 12.576ZM28.848 10.432C28.48 9.72797 28.736 8.86397 29.44 8.47997C30.144 8.11197 31.008 8.36797 31.392 9.07197C31.76 9.77597 31.504 10.64 30.8 11.024C30.592 11.136 30.352 11.2 30.128 11.2C29.616 11.2 29.12 10.928 28.848 10.432ZM19.136 9.64797C18.544 9.11997 18.48 8.20797 19.008 7.61597C19.536 7.02397 20.448 6.95997 21.04 7.48797C21.632 8.01597 21.696 8.92797 21.168 9.51997C20.88 9.83997 20.48 9.99997 20.08 9.99997C19.744 9.99997 19.408 9.88797 19.136 9.64797ZM27.36 8.75197C26.704 8.30397 26.544 7.40797 26.992 6.75197C27.44 6.09597 28.336 5.93597 28.992 6.38397C29.648 6.83197 29.808 7.72797 29.36 8.38397C29.088 8.78397 28.624 9.00797 28.176 9.00797C27.888 9.00797 27.6 8.92797 27.36 8.75197ZM21.152 7.40797C20.864 6.67197 21.248 5.82397 21.984 5.55197C22.72 5.26397 23.552 5.64797 23.84 6.38397C24.128 7.11997 23.744 7.95197 23.008 8.23997C22.832 8.30397 22.672 8.33597 22.496 8.33597C21.92 8.33597 21.376 7.98397 21.152 7.40797ZM25.248 7.96797C24.464 7.87197 23.888 7.15197 23.984 6.36797C24.08 5.58397 24.8 5.00797 25.584 5.10397C26.368 5.19997 26.944 5.91997 26.848 6.70397C26.768 7.43997 26.144 7.96797 25.424 7.96797C25.36 7.96797 25.312 7.96797 25.248 7.96797Z" fill="black"/>
<path d="M22.496 16.464C21.808 16.064 21.568 15.184 21.968 14.496C22.368 13.808 23.248 13.568 23.936 13.968C24.624 14.368 24.864 15.248 24.464 15.936C24.192 16.4 23.712 16.656 23.216 16.656C22.96 16.656 22.72 16.592 22.496 16.464ZM24.944 15.936C24.544 15.248 24.784 14.368 25.472 13.968C26.16 13.568 27.04 13.808 27.44 14.496C27.84 15.184 27.6 16.064 26.912 16.464C26.688 16.592 26.432 16.656 26.192 16.656C25.696 16.656 25.2 16.4 24.944 15.936ZM20.272 12.64C20.272 11.84 20.912 11.2 21.712 11.2C22.512 11.2 23.152 11.84 23.152 12.64C23.152 13.44 22.512 14.08 21.712 14.08C20.928 14.08 20.272 13.44 20.272 12.64ZM26.224 12.672C26.224 12.656 26.224 12.64 26.224 12.624C26.224 11.824 26.864 11.184 27.664 11.184C28.464 11.184 29.104 11.824 29.104 12.624V12.64C29.104 13.44 28.464 14.08 27.664 14.08C26.88 14.08 26.256 13.44 26.224 12.672ZM21.952 10.784C21.552 10.096 21.792 9.21602 22.48 8.81602C23.168 8.41602 24.048 8.65601 24.448 9.34401C24.848 10.032 24.608 10.912 23.92 11.312C23.696 11.44 23.44 11.504 23.2 11.504C22.704 11.504 22.224 11.248 21.952 10.784ZM25.456 11.296C24.768 10.896 24.528 10.016 24.928 9.32802C25.328 8.64002 26.208 8.40002 26.896 8.80002C27.584 9.20002 27.824 10.08 27.424 10.768C27.152 11.232 26.672 11.488 26.176 11.488C25.936 11.488 25.68 11.424 25.456 11.296Z" fill="black"/>
</svg>
