<svg width="25" height="24" viewBox="0 0 25 24" fill="none" xmlns="http://www.w3.org/2000/svg">
<g clip-path="url(#clip0_5_2284)">
<path d="M20.5 18.69L8.34 6.14L5.77 3.49L4.5 4.76L7.3 7.56V7.57C6.78 8.56 6.5 9.73 6.5 10.99V15.99L4.5 17.99V18.99H18.23L20.23 20.99L21.5 19.72L20.5 18.69ZM12.5 22C13.61 22 14.5 21.11 14.5 20H10.5C10.5 21.11 11.39 22 12.5 22ZM18.5 14.68V11C18.5 7.92 16.86 5.36 14 4.68V4C14 3.17 13.33 2.5 12.5 2.5C11.67 2.5 11 3.17 11 4V4.68C10.85 4.71 10.71 4.76 10.58 4.8C10.48 4.83 10.38 4.87 10.28 4.91H10.27C10.26 4.91 10.26 4.91 10.25 4.92C10.02 5.01 9.79 5.12 9.57 5.23C9.57 5.23 9.56 5.23 9.56 5.24L18.5 14.68Z" fill="black" fill-opacity="0.6"/>
</g>
<defs>
<clipPath id="clip0_5_2284">
<rect width="24" height="24" fill="white" transform="translate(0.5)"/>
</clipPath>
</defs>
</svg>
