<svg width="25" height="24" viewBox="0 0 25 24" fill="none" xmlns="http://www.w3.org/2000/svg">
<g clip-path="url(#clip0_5_2077)">
<path d="M8.08 4.08L6.65 2.65C4.25 4.48 2.67 7.3 2.53 10.5H4.53C4.68 7.85 6.04 5.53 8.08 4.08ZM20.47 10.5H22.47C22.32 7.3 20.74 4.48 18.35 2.65L16.93 4.08C18.95 5.53 20.32 7.85 20.47 10.5ZM18.5 11C18.5 7.93 16.86 5.36 14 4.68V4C14 3.17 13.33 2.5 12.5 2.5C11.67 2.5 11 3.17 11 4V4.68C8.13 5.36 6.5 7.92 6.5 11V16L4.5 18V19H20.5V18L18.5 16V11ZM12.5 22C12.64 22 12.77 21.99 12.9 21.96C13.55 21.82 14.08 21.38 14.34 20.78C14.44 20.54 14.49 20.28 14.49 20H10.49C10.5 21.1 11.39 22 12.5 22Z" fill="black" fill-opacity="0.6"/>
</g>
<defs>
<clipPath id="clip0_5_2077">
<rect width="24" height="24" fill="white" transform="translate(0.5)"/>
</clipPath>
</defs>
</svg>
